<svg width="98" height="163" viewBox="0 0 98 163" fill="none" xmlns="http://www.w3.org/2000/svg">
<g opacity="0.8" clip-path="url(#clip0_2282_629)">
<path d="M0.117404 61.4553C0.69966 62.4638 0.379171 63.6573 -0.630407 64.2402C-1.63998 64.823 -2.83386 64.5038 -3.41611 63.4953C-3.99837 62.4868 -3.67788 61.2933 -2.6683 60.7104C-1.74285 60.1761 -0.416329 60.5308 0.117404 61.4553Z" fill="#FFCF2D"/>
<path d="M15.177 52.7599C15.7592 53.7684 15.4387 54.962 14.4292 55.5449C13.4196 56.1277 12.2257 55.8085 11.6435 54.8C11.0612 53.7915 11.3817 52.598 12.3913 52.0151C13.4008 51.4322 14.6432 51.8355 15.177 52.7599Z" fill="#FFCF2D"/>
<path d="M30.1523 44.1135C30.7346 45.122 30.4141 46.3155 29.4045 46.8984C28.3949 47.4812 27.2011 47.162 26.6188 46.1535C26.0365 45.145 26.357 43.9515 27.3666 43.3686C28.3762 42.7857 29.6186 43.189 30.1523 44.1135Z" fill="#FFCF2D"/>
<path d="M45.2119 35.4201C45.7941 36.4286 45.4737 37.6221 44.4641 38.205C43.4545 38.7879 42.2606 38.4687 41.6784 37.4602C41.0961 36.4517 41.4166 35.2582 42.4262 34.6753C43.4358 34.0924 44.6782 34.4956 45.2119 35.4201Z" fill="#FFCF2D"/>
<path d="M60.2715 26.7248C60.8537 27.7333 60.5332 28.9268 59.5237 29.5097C58.5141 30.0926 57.3202 29.7734 56.7379 28.7649C56.1557 27.7564 56.4762 26.5628 57.4858 25.98C58.4112 25.4457 59.7377 25.8003 60.2715 26.7248Z" fill="#FFCF2D"/>
<path d="M7.3469 73.9767C7.92915 74.9852 7.60866 76.1788 6.59909 76.7616C5.58951 77.3445 4.39564 77.0253 3.81338 76.0168C3.23113 75.0083 3.55162 73.8148 4.56119 73.2319C5.48664 72.6976 6.76464 72.9682 7.3469 73.9767Z" fill="#FFCF2D"/>
<path d="M22.4065 65.2834C22.9887 66.2919 22.6682 67.4854 21.6587 68.0683C20.6491 68.6512 19.4552 68.332 18.873 67.3235C18.2907 66.315 18.6112 65.1214 19.6208 64.5386C20.6303 63.9557 21.8242 64.2749 22.4065 65.2834Z" fill="#FFCF2D"/>
<path d="M37.3818 56.6369C37.9641 57.6454 37.6436 58.8389 36.634 59.4218C35.6244 60.0047 34.4305 59.6855 33.8483 58.677C33.266 57.6685 33.5865 56.4749 34.5961 55.8921C35.6057 55.3092 36.7996 55.6284 37.3818 56.6369Z" fill="#FFCF2D"/>
<path d="M52.4414 47.9416C53.0236 48.9501 52.7031 50.1436 51.6936 50.7265C50.684 51.3094 49.4901 50.9902 48.9079 49.9817C48.3256 48.9732 48.6461 47.7796 49.6557 47.1968C50.6653 46.6139 51.8591 46.9331 52.4414 47.9416Z" fill="#FFCF2D"/>
<path d="M67.501 39.2463C68.0832 40.2548 67.7627 41.4483 66.7531 42.0312C65.7436 42.6141 64.5497 42.2948 63.9674 41.2864C63.3852 40.2779 63.7057 39.0843 64.7153 38.5014C65.6407 37.9671 66.9187 38.2378 67.501 39.2463Z" fill="#FFCF2D"/>
<path d="M0.766087 27.801C1.34834 28.8095 1.02785 30.003 0.0182743 30.5859C-0.991303 31.1687 -2.18518 30.8495 -2.76743 29.841C-3.34969 28.8325 -3.0292 27.639 -2.01962 27.0561C-1.01004 26.4733 0.183832 26.7925 0.766087 27.801Z" fill="#FFCF2D"/>
<path d="M15.7414 19.1545C16.3237 20.163 16.0032 21.3565 14.9936 21.9394C13.984 22.5223 12.7902 22.203 12.2079 21.1946C11.6257 20.1861 11.9462 18.9925 12.9557 18.4096C13.9653 17.8268 15.1592 18.146 15.7414 19.1545Z" fill="#FFCF2D"/>
<path d="M30.801 10.4592C31.3833 11.4677 31.0628 12.6612 30.0532 13.2441C29.0436 13.8269 27.8497 13.5077 27.2675 12.4992C26.6852 11.4907 27.0057 10.2972 28.0153 9.71434C29.0249 9.13146 30.2188 9.45067 30.801 10.4592Z" fill="#FFCF2D"/>
<path d="M45.8606 1.76385C46.4428 2.77235 46.1223 3.96587 45.1128 4.54875C44.1032 5.13163 42.9093 4.81242 42.3271 3.80393C41.7448 2.79543 42.0653 1.6019 43.0749 1.01902C44.0003 0.484714 45.2783 0.755357 45.8606 1.76385Z" fill="#FFCF2D"/>
<path d="M7.99582 40.3224C8.57808 41.3309 8.25759 42.5245 7.24801 43.1074C6.23843 43.6902 5.04456 43.371 4.46231 42.3625C3.88005 41.354 4.20054 40.1605 5.21012 39.5776C6.2197 38.9947 7.41357 39.314 7.99582 40.3224Z" fill="#FFCF2D"/>
<path d="M22.9712 31.676C23.5534 32.6845 23.2329 33.878 22.2234 34.4609C21.2138 35.0437 20.0199 34.7245 19.4376 33.716C18.8554 32.7075 19.1759 31.514 20.1855 30.9311C21.195 30.3482 22.3889 30.6675 22.9712 31.676Z" fill="#FFCF2D"/>
<path d="M38.0307 22.9826C38.613 23.9911 38.2925 25.1846 37.2829 25.7675C36.2733 26.3504 35.0795 26.0312 34.4972 25.0227C33.915 24.0142 34.2355 22.8207 35.245 22.2378C36.2546 21.6549 37.4485 21.9741 38.0307 22.9826Z" fill="#FFCF2D"/>
<path d="M53.0903 14.2873C53.6726 15.2958 53.3521 16.4893 52.3425 17.0722C51.3329 17.6551 50.139 17.3359 49.5568 16.3274C48.9745 15.3189 49.295 14.1253 50.3046 13.5425C51.2301 13.0082 52.5081 13.2788 53.0903 14.2873Z" fill="#FFCF2D"/>
<path d="M-0.53127 95.1096C0.0509861 96.118 -0.269505 97.3116 -1.27908 97.8945C-2.28866 98.4773 -3.48254 98.1581 -4.06479 97.1496C-4.64705 96.1411 -4.32655 94.9476 -3.31698 94.3647C-2.3074 93.7818 -1.065 94.1851 -0.53127 95.1096Z" fill="#FFCF2D"/>
<path d="M14.5283 86.4162C15.1105 87.4247 14.7901 88.6182 13.7805 89.2011C12.7709 89.784 11.577 89.4648 10.9948 88.4563C10.4125 87.4478 10.733 86.2542 11.7426 85.6714C12.668 85.1371 13.9946 85.4917 14.5283 86.4162Z" fill="#FFCF2D"/>
<path d="M29.5879 77.7209C30.1701 78.7294 29.8496 79.9229 28.8401 80.5058C27.8305 81.0887 26.6366 80.7695 26.0543 79.761C25.4721 78.7525 25.7926 77.5589 26.8022 76.9761C27.8117 76.3932 29.0541 76.7964 29.5879 77.7209Z" fill="#FFCF2D"/>
<path d="M44.5632 69.0744C45.1455 70.0829 44.825 71.2764 43.8154 71.8593C42.8058 72.4422 41.6119 72.123 41.0297 71.1145C40.4474 70.106 40.7679 68.9124 41.7775 68.3296C42.7871 67.7467 44.0295 68.1499 44.5632 69.0744Z" fill="#FFCF2D"/>
<path d="M59.6228 60.3791C60.205 61.3876 59.8845 62.5811 58.875 63.164C57.8654 63.7469 56.6715 63.4277 56.0893 62.4192C55.507 61.4107 55.8275 60.2171 56.8371 59.6343C57.8466 59.0514 59.089 59.4546 59.6228 60.3791Z" fill="#FFCF2D"/>
<path d="M74.6823 51.6857C75.2646 52.6942 74.9441 53.8878 73.9345 54.4706C72.925 55.0535 71.7311 54.7343 71.1488 53.7258C70.5666 52.7173 70.8871 51.5238 71.8966 50.9409C72.8221 50.4066 74.1486 50.7613 74.6823 51.6857Z" fill="#FFCF2D"/>
<path d="M5.95041 110.416C6.92616 109.853 7.26097 108.606 6.69822 107.631C6.13547 106.656 4.88827 106.323 3.91252 106.886C2.93676 107.45 2.60195 108.696 3.1647 109.671C3.72745 110.646 4.97465 110.979 5.95041 110.416Z" fill="#FFCF2D"/>
<path d="M21.7578 98.9377C22.34 99.9462 22.0195 101.14 21.01 101.723C20.0004 102.305 18.8065 101.986 18.2243 100.978C17.642 99.9693 17.9625 98.7757 18.9721 98.1929C19.8975 97.6585 21.1755 97.9292 21.7578 98.9377Z" fill="#FFCF2D"/>
<path d="M36.8174 90.2424C37.3996 91.2509 37.0791 92.4444 36.0695 93.0273C35.06 93.6102 33.8661 93.2909 33.2838 92.2824C32.7016 91.2739 33.0221 90.0804 34.0317 89.4975C35.0412 88.9147 36.2351 89.2339 36.8174 90.2424Z" fill="#FFCF2D"/>
<path d="M51.7927 81.5959C52.375 82.6044 52.0545 83.7979 51.0449 84.3808C50.0353 84.9637 48.8414 84.6445 48.2592 83.636C47.6769 82.6275 47.9974 81.4339 49.007 80.8511C50.0166 80.2682 51.2104 80.5874 51.7927 81.5959Z" fill="#FFCF2D"/>
<path d="M66.1045 75.6874C67.0802 75.1241 67.415 73.8772 66.8523 72.9025C66.2895 71.9278 65.0423 71.5943 64.0666 72.1577C63.0908 72.721 62.756 73.9679 63.3188 74.9426C63.8815 75.9173 65.1287 76.2508 66.1045 75.6874Z" fill="#FFCF2D"/>
<path d="M81.9118 64.2072C82.4941 65.2157 82.1736 66.4092 81.164 66.9921C80.1545 67.575 78.9606 67.2558 78.3783 66.2473C77.7961 65.2388 78.1166 64.0453 79.1261 63.4624C80.0516 62.9281 81.3296 63.1987 81.9118 64.2072Z" fill="#FFCF2D"/>
<path d="M13.928 120.154C14.5102 121.163 14.1897 122.357 13.1801 122.939C12.1706 123.522 10.9767 123.203 10.3944 122.195C9.81218 121.186 10.1327 119.993 11.1423 119.41C12.1518 118.827 13.3457 119.146 13.928 120.154Z" fill="#FFCF2D"/>
<path d="M28.9875 111.459C29.5698 112.468 29.2493 113.661 28.2397 114.244C27.2301 114.827 26.0363 114.508 25.454 113.499C24.8718 112.491 25.1922 111.297 26.2018 110.714C27.1273 110.18 28.4053 110.451 28.9875 111.459Z" fill="#FFCF2D"/>
<path d="M44.0471 102.766C44.6294 103.774 44.3089 104.968 43.2993 105.551C42.2897 106.134 41.0958 105.814 40.5136 104.806C39.9313 103.797 40.2518 102.604 41.2614 102.021C42.271 101.438 43.4648 101.757 44.0471 102.766Z" fill="#FFCF2D"/>
<path d="M59.0227 94.1193C59.6049 95.1278 59.2845 96.3213 58.2749 96.9042C57.2653 97.4871 56.0714 97.1679 55.4892 96.1594C54.9069 95.1509 55.2274 93.9574 56.237 93.3745C57.2466 92.7916 58.4404 93.1108 59.0227 94.1193Z" fill="#FFCF2D"/>
<path d="M74.0823 85.424C74.6645 86.4325 74.344 87.626 73.3344 88.2089C72.3249 88.7918 71.131 88.4726 70.5487 87.4641C69.9665 86.4556 70.287 85.2621 71.2965 84.6792C72.3061 84.0963 73.5 84.4155 74.0823 85.424Z" fill="#FFCF2D"/>
<path d="M89.1416 76.7307C89.7238 77.7391 89.4033 78.9327 88.3938 79.5156C87.3842 80.0984 86.1903 79.7792 85.6081 78.7707C85.0258 77.7622 85.3463 76.5687 86.3559 75.9858C87.2813 75.4515 88.5593 75.7222 89.1416 76.7307Z" fill="#FFCF2D"/>
<path d="M6.04954 141.287C6.6318 142.296 6.3113 143.489 5.30173 144.072C4.29215 144.655 3.09827 144.336 2.51602 143.327C1.93376 142.319 2.25425 141.125 3.26383 140.542C4.27341 139.96 5.51581 140.363 6.04954 141.287Z" fill="#FFCF2D"/>
<path d="M21.1091 132.592C21.6914 133.6 21.3709 134.794 20.3613 135.377C19.3517 135.96 18.1578 135.641 17.5756 134.632C16.9933 133.624 17.3138 132.43 18.3234 131.847C19.333 131.264 20.5754 131.668 21.1091 132.592Z" fill="#FFCF2D"/>
<path d="M36.1687 123.899C36.7509 124.907 36.4304 126.101 35.4209 126.684C34.4113 127.266 33.2174 126.947 32.6352 125.939C32.0529 124.93 32.3734 123.737 33.383 123.154C34.3084 122.619 35.6349 122.974 36.1687 123.899Z" fill="#FFCF2D"/>
<path d="M51.2282 115.203C51.8105 116.212 51.49 117.405 50.4804 117.988C49.4709 118.571 48.277 118.252 47.6947 117.243C47.1125 116.235 47.433 115.041 48.4425 114.458C49.4521 113.876 50.6945 114.279 51.2282 115.203Z" fill="#FFCF2D"/>
<path d="M66.2036 106.557C66.7859 107.565 66.4654 108.759 65.4558 109.342C64.4462 109.925 63.2523 109.605 62.6701 108.597C62.0878 107.588 62.4083 106.395 63.4179 105.812C64.4275 105.229 65.6699 105.632 66.2036 106.557Z" fill="#FFCF2D"/>
<path d="M81.2632 97.8615C81.8454 98.87 81.5249 100.064 80.5153 100.646C79.5058 101.229 78.3119 100.91 77.7296 99.9016C77.1474 98.8931 77.4679 97.6996 78.4775 97.1167C79.487 96.5338 80.7294 96.9371 81.2632 97.8615Z" fill="#FFCF2D"/>
<path d="M96.3227 89.1682C96.905 90.1766 96.5845 91.3702 95.5749 91.9531C94.5653 92.5359 93.3715 92.2167 92.7892 91.2082C92.207 90.1997 92.5275 89.0062 93.537 88.4233C94.4625 87.889 95.789 88.2437 96.3227 89.1682Z" fill="#FFCF2D"/>
</g>
<defs>
<clipPath id="clip0_2282_629">
<rect width="143" height="105" fill="white" transform="translate(-79 71.5) rotate(-30)"/>
</clipPath>
</defs>
</svg>
